<svg width="138" height="88" viewBox="0 0 138 88" fill="none" xmlns="http://www.w3.org/2000/svg">
<g filter="url(#filter0_d_512_44)">
<path d="M68 62.5L66.5 53.5L63 45L57.5 37L49.5 29.5L41.5 25L35 23L26 22L25.5 29L27.5 35.5L30 41.5L33 46.5" stroke="white" stroke-width="5" stroke-linecap="round"/>
<path d="M69.5 63L75.5 56.5L79 48.5L80 41L81 29.5L78 20.5L74 12L68.5 4L65 7.5L62 12L59 18.5L57 24.5L56 28" stroke="white" stroke-width="5" stroke-linecap="round"/>
<path d="M61 71L51 75.5L43.5 77.5H34.5L25 75.5L16.5 72L8 65L14 59.5L23 54.5L33.5 53H39.5H43.5L48.5 54.5L53.5 56L61 59.5L66.5 64L72.5 69.5L81 74L93 77.5H103H106L108.5 76.5L113 75.5L116.5 74L122 71L128 67.5L130 65L124 60.5L118.5 57.5L111.5 54.5L104.5 53" stroke="white" stroke-width="5" stroke-linecap="round"/>
<path d="M69.5 65.5L78 64L87.5 60.5L96 55L102.5 49.5L107 41.5L109.5 34.5L110.5 27L112 21.5H107L102.5 22.5L96 24.5L91 27L86 30.5" stroke="white" stroke-width="5" stroke-linecap="round"/>
</g>
<defs>
<filter id="filter0_d_512_44" x="0.190063" y="0.106934" width="137.373" height="87.8931" filterUnits="userSpaceOnUse" color-interpolation-filters="sRGB">
<feFlood flood-opacity="0" result="BackgroundImageFix"/>
<feColorMatrix in="SourceAlpha" type="matrix" values="0 0 0 0 0 0 0 0 0 0 0 0 0 0 0 0 0 0 127 0" result="hardAlpha"/>
<feOffset dy="4"/>
<feGaussianBlur stdDeviation="2"/>
<feComposite in2="hardAlpha" operator="out"/>
<feColorMatrix type="matrix" values="0 0 0 0 0 0 0 0 0 0 0 0 0 0 0 0 0 0 0.25 0"/>
<feBlend mode="normal" in2="BackgroundImageFix" result="effect1_dropShadow_512_44"/>
<feBlend mode="normal" in="SourceGraphic" in2="effect1_dropShadow_512_44" result="shape"/>
</filter>
</defs>
</svg>
